# xmcd CD database file
#
# Track frame offsets:
#	150
#	21096
#	44804
#	70438
#	90353
#	101812
#	129633
#	145734
#	154692
#	174126
#	187880
#	205277
#
# Disc length: 2839 seconds
#
# Revision: 0
# Processed by: cddbd v1.5PL3 Copyright (c) Steve Scherf et al.
# Submitted via: CDex 1.50beta9
#
DISCID=a20b150c
DTITLE=Solveig Slettahjell Slow Motion Quintet - Silver
DYEAR=2004
DGENRE=Jazz
TTITLE0=Take it With Me
TTITLE1=Second Time Around
TTITLE2=What is This Thing Called Love
TTITLE3=D. Parkers Wisdom
TTITLE4=What If
TTITLE5=You Won't Forget Me
TTITLE6=Nobody's Fault But Mine
TTITLE7=Moon River
TTITLE8=Time After Time
TTITLE9=12th of Never
TTITLE10=The More I See You
TTITLE11=Look For the Silver Lining
EXTD=YEAR: 2004
EXTT0=
EXTT1=
EXTT2=
EXTT3=
EXTT4=
EXTT5=
EXTT6=
EXTT7=
EXTT8=
EXTT9=
EXTT10=
EXTT11=
PLAYORDER=
